<svg xmlns="http://www.w3.org/2000/svg" width="64" height="64" viewBox="0 0 64 64" fill="none">
  <defs>
    <linearGradient id="g" x1="10" y1="10" x2="54" y2="56" gradientUnits="userSpaceOnUse">
      <stop offset="0" stop-color="#102235" />
      <stop offset="1" stop-color="#07131f" />
    </linearGradient>
    <linearGradient id="roof" x1="14" y1="16" x2="50" y2="28" gradientUnits="userSpaceOnUse">
      <stop offset="0" stop-color="#46d3b6" />
      <stop offset="1" stop-color="#24a6ff" />
    </linearGradient>
  </defs>
  <rect x="4" y="4" width="56" height="56" rx="16" fill="url(#g)" />
  <path d="M14 25.5L32 14l18 11.5v7.5H14v-7.5Z" fill="url(#roof)" />
  <path d="M18 30h28v16.5c0 2.5-2 4.5-4.5 4.5h-19c-2.5 0-4.5-2-4.5-4.5V30Z" fill="#0f1e2d" stroke="#89f4d3" stroke-width="1.2" />
  <path d="M22 42.5c0-5.4 3.5-9.5 8-9.5s8 4.1 8 9.5" stroke="#ffd166" stroke-width="4" stroke-linecap="round" />
  <path d="M22.5 48.5h19" stroke="#46d3b6" stroke-width="3" stroke-linecap="round" />
  <circle cx="26" cy="36" r="2" fill="#ff7b54" />
  <circle cx="38" cy="36" r="2" fill="#ff7b54" />
</svg>